<?xml version="1.0" ?><!DOCTYPE svg  PUBLIC '-//W3C//DTD SVG 1.1//EN'  'http://www.w3.org/Graphics/SVG/1.1/DTD/svg11.dtd'><svg enable-background="new 0 0 512 512" height="512px" id="Layer_1" version="1.1" viewBox="0 0 512 512" width="512px" xml:space="preserve" xmlns="http://www.w3.org/2000/svg" xmlns:xlink="http://www.w3.org/1999/xlink"><g><polygon points="364.489,395.516 380.7,395.516 380.7,425.074 387.281,425.074 387.281,395.516 403.491,395.516    403.491,390.914 364.489,390.914  "/><path d="M437.011,419.104l-13.835-28.189h-9.337v34.16h6.227v-22.801c0-0.916-0.036-2.342-0.102-4.277   c-0.008-0.34-0.016-0.58-0.025-0.891l13.794,27.969h6.457l13.733-28.117c0,2.09-0.02-0.428-0.063,1.393   c-0.044,1.826-0.065,3.137-0.065,3.926v22.801h6.222v-34.16h-9.27L437.011,419.104z"/><path d="M270.88,291.283c0,0,172.684-42.339,76.869-102.232c0,0-119.136-72.766-232.46,1.26l45-91.923L60.376,98.06   L7.489,207.258c0,0-44.598,83.646,82.303,83.838C257.544,299.083,270.88,291.283,270.88,291.283z M233.112,192.483   c41.975,0,76.003,13.838,76.003,30.91c0,17.071-34.028,30.909-76.003,30.909c-41.976,0-76.005-13.838-76.005-30.909   S191.136,192.483,233.112,192.483z"/><path d="M462.954,142.76c0,0-85.089-60.559-260.096-45.155l-0.002,7.821c0,0,200.156,12.782,226.64,96.724   c0,0,35.535,88.715-171.897,131.971c0,0-96.264,16.016-195.601,13.037l-0.64,18.607c0,0,283.522,6.029,364.619-40.08   C425.977,325.686,592.081,253.124,462.954,142.76z"/></g></svg>