
<?xml version="1.0" encoding="utf-8"?><!-- Generator: Adobe Illustrator 15.0.0, SVG Export Plug-In . SVG Version: 6.00 Build 0) --><!DOCTYPE svg PUBLIC "-//W3C//DTD SVG 1.1//EN" "http://www.w3.org/Graphics/SVG/1.1/DTD/svg11.dtd"><svg version="1.1" id="svg2" xmlns:svg="http://www.w3.org/2000/svg" xmlns="http://www.w3.org/2000/svg" xmlns:xlink="http://www.w3.org/1999/xlink" x="0px" y="0px" width="308.25px" height="76.25px" viewBox="0 0 308.25 76.25" enable-background="new 0 0 308.25 76.25" xml:space="preserve"><path id="path239" d="M132.717,57.558c0-1.59-0.518-2.186-2.071-2.186h-7.087v16.061h7.046c1.422,0,2.112-0.441,2.112-2.121V57.558z M131.271,75.351h-13.064v-23.92h13.301c4.802,0,6.536,2.145,6.536,6.055v11.217C138.044,73.937,135.9,75.351,131.271,75.351"/><rect id="rect241" x="143.593" y="51.423" width="5.323" height="23.928"/><path id="path243" d="M170.691,75.351l-0.553-1.613c-0.796,1.027-2.313,2.031-5.982,2.031h-2.627c-4.561,0-7.049-1.422-7.049-6.527V57.246c0-6.232,4.674-6.305,7.917-6.305h6.248c2.394,0,4.465,0.457,5.5,1.043v3.068h-12.061c-1.422,0-2.289,0.354-2.289,2.297v12.479c0,1.557,0.98,1.941,2.257,1.941h3.701c0.996,0,2.892-0.426,3.759-0.875v-5.563h-5.011v-3.52h10.197v13.539H170.691L170.691,75.351z"/><rect id="rect245" x="180.424" y="51.423" width="5.324" height="23.928"/><polygon id="polygon247" points="201.229,55.341 201.229,75.351 195.913,75.351 195.913,55.341 188.719,55.341 188.719,51.423 208.343,51.423 208.343,55.341 "/><path id="path249" d="M219.544,55.865l-0.313-1.424h-0.111l-0.338,1.424l-2.971,9.338h6.776L219.544,55.865z M225.896,75.351l-2.008-6.143h-9.33l-1.992,6.143h-4.736l8.527-24.137h6.326l8.641,24.137H225.896z"/><polygon id="polygon251" points="235.9,75.351 235.9,51.431 241.216,51.431 241.216,71.281 252.217,71.281 252.217,75.351 "/><path id="path255" d="M295.141,1.686l-9.949,18.007L275.58,1.686h-9.01c1.687,3.052,13.474,25.209,13.474,25.209v14.619h9.668c0.008-1.973,0-14.555,0-14.555s12.245-22.206,13.972-25.273H295.141z"/><path id="path257" d="M95.99,66.359H83.611c-12.838,0-23.537-12.659-23.537-28.367c0-15.21,10.699-28.108,23.537-28.108h12.377L95.99,66.359L95.99,66.359z M25.53,66.359H13.176V9.884H25.53c12.814,0,23.549,12.897,23.549,28.107C49.081,53.7,38.345,66.359,25.53,66.359 M0.397,76.25H108.75V0H0.397V76.25z"/><path id="path259" d="M190.996,3.903C188.25,1.992,183.625,1,177.619,1c-5.861,0-10.117,0.803-13.391,2.919c-3.42,2.2-5.033,5.894-5.033,11.675v12.538c0,5.79,1.679,9.704,4.994,11.644c2.678,1.867,7.055,2.753,13.43,2.753c6.295,0,10.792-0.902,13.361-2.705c3.324-2.071,5.059-6.082,5.059-11.691v-12.54C196.039,10.093,194.354,6.17,190.996,3.903 M187.021,27.574c0,7.062-2.465,8.688-9.402,8.688c-6.922,0-9.395-1.626-9.395-8.688V15.642c0-6.89,2.473-8.379,9.395-8.379c6.938,0,9.402,1.489,9.402,8.379V27.574z"/><path id="path261" d="M137.628,1.686h-19.945v39.847h21.354c10.515,0,14.429-4.3,14.429-15.854v-8.757C153.466,5.954,149.026,1.686,137.628,1.686 M144.554,26.634c0,6.981-3.726,8.74-6.85,8.74H126.68V7.532h11.024c3.124,0,6.85,1.763,6.85,8.255V26.634L144.554,26.634z"/><polygon id="polygon263" points="211.633,1.686 202.641,1.686 202.641,41.529 228.236,41.529 228.236,34.897 211.633,34.897 "/><path id="path265" d="M299.154,38.06h0.755l1.156,1.899h0.738l-1.236-1.936c0.643-0.08,1.133-0.417,1.133-1.185c0-0.863-0.506-1.248-1.55-1.248h-1.654v4.368h0.658V38.06L299.154,38.06z M299.154,36.149h0.898c0.771,0,0.973,0.225,0.973,0.643c0,0.478-0.266,0.707-1.076,0.707h-0.795V36.149L299.154,36.149z M296.136,37.755c0,2.204,1.75,3.79,3.83,3.79c2.047,0,3.806-1.586,3.806-3.79c0-2.164-1.759-3.742-3.806-3.742C297.886,34.013,296.136,35.591,296.136,37.755 M303.049,37.755c0,1.851-1.355,3.171-3.083,3.171c-1.751,0-3.1-1.32-3.1-3.171c0-1.803,1.349-3.152,3.1-3.152C301.692,34.603,303.049,35.953,303.049,37.755"/><path id="path267" d="M250.271,35.728h-8.109V7.419V7.395h8.84c2.995,0,4.857,2.381,4.857,5.629c0,5.003-2.408,5.123-9.307,5.38v4.613c6.151-0.017,11.09-0.397,11.09,5.985C257.643,32.199,255.604,35.728,250.271,35.728 M255.04,20.443c7.065-0.642,8.601-4.11,8.601-9.085c0-4.393-1.854-6.62-3.896-7.877c-1.702-1.072-3.718-1.795-7.949-1.795h-18.637v39.847h18.878c5.798,0,8.214-1.152,9.33-1.923c1.928-1.276,4.417-4.119,4.417-8.668C265.784,25.598,263.921,20.235,255.04,20.443"/></svg>