<?xml version="1.0" encoding="UTF-8" standalone="no"?>
<!-- Created with Inkscape (http://www.inkscape.org/) -->


<svg xmlns:svg="http://www.w3.org/2000/svg" xmlns="http://www.w3.org/2000/svg" version="1.1" id="svg4575"> <defs id="defs4577" /> <path d="m 0.115,0.27500016 101.245,0 0,48.46999984 -101.245,0 0,-48.46999984 z M 71.445,37.6425 C 70.51,37.295 69.505,37.295 68.71,37.295 l 0,2.7025 c 0.735,0 1.9125,0.0426 3.03,0.4075 1.2075,0.3475 3.5975,1.13 7.9175,1.13 9.965,0 16.81,-2.8675 16.81,-7.5775 0,-2.4 -3.6675,-4.7325 -6.455,-7.145 -0.76,-0.8 -1.395,-1.465 -1.0775,-2.295 0.3175,-1.28 3.3525,-1.465 5.8275,-1.28 l 0.3625,-1.71 C 91.855,20.5425 88.3925,20 84.73,20 c -9.2175,0 -15.06,2.6225 -15.06,6.3925 0,2.8325 3.465,4.9 7.0075,7.7675 1.0475,1.105 1.0475,1.595 0.73,2.62 -0.5275,1.495 -3.8025,1.495 -5.9625,0.8625 z M 47.1975,15.8425 63.035,8.6950001 62.9824,20.41 l 4.2125,0 0,3.7 -4.2125,0 0,12.405 c 0,0.5525 0.975,1.1275 1.7525,1.23 1.23,0.1 2.46,-0.495 3.975,-0.495 l 0,2.7475 c -0.92,0 -1.8125,0.0426 -3.0925,0.33 -2.725,0.695 -5.98,0.9375 -9.0225,0.9375 -4.7325,0 -9.5575,-1.985 -9.5575,-5.57 l 0,-11.585 -4.91,0 0,-3.7 5.07,0 0,-4.5675 z m -21.11,-9.8124999 0,15.3249999 c -2.295,-1.035 -3.8425,-1.2 -6.345,-1.19 -6.8475,0.245 -13.825,3.84 -13.8075,10.575 0,6.555 6.1875,10.9375 12.9675,10.795 2.9075,-0.105 4.615,-0.27 7.185,-1.5375 l 0,1.2675 16.04,0 0,-35.2349999 -16.04,0 z m 0,18.9074999 0,12.0075 c -2.8625,-0.86 -4.39,-3.2575 -4.3425,-6.205 0.0924,-2.8075 1.6575,-5.0025 4.3425,-5.8025" id="path476" style="fill-opacity:1;fill-rule:evenodd;stroke:none" /></svg>
